<?xml version="1.0" encoding="utf-8"?>
<!-- Generator: Adobe Illustrator 23.0.0, SVG Export Plug-In . SVG Version: 6.00 Build 0)  -->
<svg version="1.1" id="Слой_1" xmlns="http://www.w3.org/2000/svg" xmlns:xlink="http://www.w3.org/1999/xlink" x="0px" y="0px"
	 viewBox="0 0 63.6 60.7" style="enable-background:new 0 0 63.6 60.7;" xml:space="preserve">
<style type="text/css">
	.st0{fill:#292929;stroke:#292929;stroke-miterlimit:10;}
</style>
<title>Ресурс 1</title>
<g>
	<g id="Слой_1-2">
		<path class="st0" d="M58.3,48.4c-3.2,3.6-7.9,5.4-12.7,4.9c-3.4-0.5-6.6-2.1-8.9-4.6l4.9,11.5H22l4.7-11.2
			c-1.7,1.8-3.8,3.1-6.2,3.8C15,54.5,8.9,52.6,5.2,48.2c-4.3-5.1-5.8-12-3.8-18.4c1.1-3.4,3.1-6.4,5.9-8.7L31.8,0.6l24.4,20.2
			c2.8,2.3,4.8,5.3,5.9,8.7C64.2,36,63,43.4,58.3,48.4z"/>
	</g>
</g>
</svg>
