<?xml version="1.0" encoding="utf-8"?>
<!-- Generator: Adobe Illustrator 23.0.0, SVG Export Plug-In . SVG Version: 6.00 Build 0)  -->
<svg version="1.1" id="Слой_1" xmlns="http://www.w3.org/2000/svg" xmlns:xlink="http://www.w3.org/1999/xlink" x="0px" y="0px"
	 viewBox="0 0 61.3 59.8" style="enable-background:new 0 0 61.3 59.8;" xml:space="preserve">
<style type="text/css">
	.st0{fill:#292929;stroke:#292929;stroke-miterlimit:10;}
</style>
<title>Ресурс 4</title>
<g>
	<g id="Слой_1-2">
		<path class="st0" d="M59.2,44.6c-3.6,7.2-12.4,10.1-19.6,6.4c0,0,0,0,0,0c-1.4-0.7-2.7-1.6-3.8-2.7l-0.2-0.5h-0.3l0.5,0.4l4.7,11
			H20.7l4.6-10.8l0.5-0.4h-0.3l-0.2,0.4c-1.1,1-2.3,1.8-3.5,2.5c-7.1,3.8-16,1-19.7-6.1s-1-16,6.1-19.7c0.1-0.1,0.2-0.1,0.4-0.2
			c2.9-1.4,6-2.1,9.2-2.2c-1-2.5-1.6-5.1-1.7-7.8C16.2,7,22.9,0.7,31,0.9c7.8,0.2,14,6.4,14.2,14.2c-0.1,2.6-0.6,5.3-1.6,7.7
			c3.2,0.1,6.4,0.8,9.2,2.2C60,28.7,62.8,37.4,59.2,44.6z"/>
	</g>
</g>
</svg>
