<svg width="60" height="98" viewBox="0 0 60 98" fill="none" xmlns="http://www.w3.org/2000/svg">
<rect width="60" height="98" fill="#D6D6D6"/>
<path d="M45.1691 56.9217C44.7107 57.8586 44.0782 58.6928 43.3076 59.3766C42.5371 60.0604 41.6437 60.5803 40.6786 60.9067C39.7135 61.2331 38.6957 61.3594 37.6833 61.2786C36.6709 61.1977 35.6839 60.9112 34.7787 60.4354C34.0441 60.0408 33.3597 59.5537 32.7409 58.9851L32.6403 58.7388H32.4815L32.7409 58.9796L35.2128 65H24.7907L27.2043 59.0945L27.4425 58.8866H27.289L27.2043 59.0891C26.63 59.611 25.9995 60.0627 25.3253 60.4354C24.42 60.9291 23.4288 61.2318 22.4094 61.3259C21.39 61.4201 20.3627 61.3037 19.3872 60.9837C18.4116 60.6636 17.5073 60.1463 16.7269 59.4617C15.9464 58.7771 15.3053 57.9389 14.8409 56.9959C14.3765 56.0529 14.098 55.0238 14.0216 53.9685C13.9451 52.9132 14.0724 51.8527 14.3958 50.8487C14.7193 49.8446 15.2325 48.9171 15.9057 48.12C16.5789 47.3229 17.3986 46.6721 18.3172 46.2054C19.8369 45.4578 21.4936 45.0548 23.1763 45.0232C22.6292 43.6787 22.3311 42.2399 22.2976 40.7816C22.3503 38.6993 23.1874 36.7205 24.6304 35.267C26.0734 33.8134 28.0083 33 30.0229 33C32.0374 33 33.9724 33.8134 35.4154 35.267C36.8584 36.7205 37.6954 38.6993 37.7482 40.7816C37.7174 42.2286 37.4285 43.6573 36.896 44.9959C38.5914 45.0303 40.2597 45.4429 41.7868 46.2054C43.607 47.1656 44.985 48.8325 45.6189 50.8411C46.2529 52.8497 46.0911 55.0362 45.1691 56.9217Z" fill="#1D1D1B"/>
<path d="M16.5032 26.2386C15.3327 26.2386 14.2987 26.0312 13.4009 25.6165C12.5089 25.196 11.8129 24.6193 11.3129 23.8864C10.8129 23.1477 10.5657 22.3068 10.5714 21.3636C10.5657 20.625 10.7106 19.9432 11.006 19.3182C11.3015 18.6875 11.7049 18.1619 12.2163 17.7415C12.7333 17.3153 13.31 17.0455 13.9464 16.9318V16.8295C13.1112 16.6136 12.4464 16.1449 11.9521 15.4233C11.4577 14.696 11.2134 13.8693 11.2191 12.9432C11.2134 12.0568 11.4379 11.2642 11.8924 10.5653C12.3469 9.86648 12.9719 9.31534 13.7674 8.91193C14.5685 8.50852 15.4805 8.30682 16.5032 8.30682C17.5146 8.30682 18.418 8.50852 19.2134 8.91193C20.0089 9.31534 20.6339 9.86648 21.0884 10.5653C21.5487 11.2642 21.7816 12.0568 21.7873 12.9432C21.7816 13.8693 21.5288 14.696 21.0288 15.4233C20.5344 16.1449 19.8782 16.6136 19.06 16.8295V16.9318C19.6907 17.0455 20.2589 17.3153 20.7646 17.7415C21.2702 18.1619 21.6737 18.6875 21.9748 19.3182C22.2759 19.9432 22.4293 20.625 22.435 21.3636C22.4293 22.3068 22.1737 23.1477 21.668 23.8864C21.168 24.6193 20.4719 25.196 19.5799 25.6165C18.6935 26.0312 17.668 26.2386 16.5032 26.2386ZM16.5032 24.3636C17.293 24.3636 17.9748 24.2358 18.5487 23.9801C19.1225 23.7244 19.5657 23.3636 19.8782 22.8977C20.1907 22.4318 20.3498 21.8864 20.3555 21.2614C20.3498 20.6023 20.1793 20.0199 19.8441 19.5142C19.5089 19.0085 19.0515 18.6108 18.4719 18.321C17.8981 18.0312 17.2418 17.8864 16.5032 17.8864C15.7589 17.8864 15.0941 18.0312 14.5089 18.321C13.9293 18.6108 13.4719 19.0085 13.1367 19.5142C12.8072 20.0199 12.6452 20.6023 12.6509 21.2614C12.6452 21.8864 12.7958 22.4318 13.1026 22.8977C13.4151 23.3636 13.8612 23.7244 14.4407 23.9801C15.0202 24.2358 15.7077 24.3636 16.5032 24.3636ZM16.5032 16.0795C17.1282 16.0795 17.6822 15.9545 18.1651 15.7045C18.6538 15.4545 19.0373 15.1051 19.3157 14.6562C19.5941 14.2074 19.7362 13.6818 19.7418 13.0795C19.7362 12.4886 19.5969 11.9744 19.3242 11.5369C19.0515 11.0937 18.6737 10.7528 18.1907 10.5142C17.7077 10.2699 17.1452 10.1477 16.5032 10.1477C15.8498 10.1477 15.2788 10.2699 14.7901 10.5142C14.3015 10.7528 13.9237 11.0937 13.6566 11.5369C13.3896 11.9744 13.2589 12.4886 13.2646 13.0795C13.2589 13.6818 13.3924 14.2074 13.6651 14.6562C13.9435 15.1051 14.3271 15.4545 14.8157 15.7045C15.3043 15.9545 15.8668 16.0795 16.5032 16.0795Z" fill="#1D1D1B"/>
<path d="M43.5032 89.2386C42.3327 89.2386 41.2987 89.0312 40.4009 88.6165C39.5089 88.196 38.8129 87.6193 38.3129 86.8864C37.8129 86.1477 37.5657 85.3068 37.5714 84.3636C37.5657 83.625 37.7106 82.9432 38.006 82.3182C38.3015 81.6875 38.7049 81.1619 39.2163 80.7415C39.7333 80.3153 40.31 80.0455 40.9464 79.9318V79.8295C40.1112 79.6136 39.4464 79.1449 38.9521 78.4233C38.4577 77.696 38.2134 76.8693 38.2191 75.9432C38.2134 75.0568 38.4379 74.2642 38.8924 73.5653C39.3469 72.8665 39.9719 72.3153 40.7674 71.9119C41.5685 71.5085 42.4805 71.3068 43.5032 71.3068C44.5146 71.3068 45.418 71.5085 46.2134 71.9119C47.0089 72.3153 47.6339 72.8665 48.0884 73.5653C48.5487 74.2642 48.7816 75.0568 48.7873 75.9432C48.7816 76.8693 48.5288 77.696 48.0288 78.4233C47.5344 79.1449 46.8782 79.6136 46.06 79.8295V79.9318C46.6907 80.0455 47.2589 80.3153 47.7646 80.7415C48.2702 81.1619 48.6737 81.6875 48.9748 82.3182C49.2759 82.9432 49.4293 83.625 49.435 84.3636C49.4293 85.3068 49.1737 86.1477 48.668 86.8864C48.168 87.6193 47.4719 88.196 46.5799 88.6165C45.6935 89.0312 44.668 89.2386 43.5032 89.2386ZM43.5032 87.3636C44.293 87.3636 44.9748 87.2358 45.5487 86.9801C46.1225 86.7244 46.5657 86.3636 46.8782 85.8977C47.1907 85.4318 47.3498 84.8864 47.3555 84.2614C47.3498 83.6023 47.1793 83.0199 46.8441 82.5142C46.5089 82.0085 46.0515 81.6108 45.4719 81.321C44.8981 81.0312 44.2418 80.8864 43.5032 80.8864C42.7589 80.8864 42.0941 81.0312 41.5089 81.321C40.9293 81.6108 40.4719 82.0085 40.1367 82.5142C39.8072 83.0199 39.6452 83.6023 39.6509 84.2614C39.6452 84.8864 39.7958 85.4318 40.1026 85.8977C40.4151 86.3636 40.8612 86.7244 41.4407 86.9801C42.0202 87.2358 42.7077 87.3636 43.5032 87.3636ZM43.5032 79.0795C44.1282 79.0795 44.6822 78.9545 45.1651 78.7045C45.6538 78.4545 46.0373 78.1051 46.3157 77.6562C46.5941 77.2074 46.7362 76.6818 46.7418 76.0795C46.7362 75.4886 46.5969 74.9744 46.3242 74.5369C46.0515 74.0937 45.6737 73.7528 45.1907 73.5142C44.7077 73.2699 44.1452 73.1477 43.5032 73.1477C42.8498 73.1477 42.2788 73.2699 41.7901 73.5142C41.3015 73.7528 40.9237 74.0937 40.6566 74.5369C40.3896 74.9744 40.2589 75.4886 40.2646 76.0795C40.2589 76.6818 40.3924 77.2074 40.6651 77.6562C40.9435 78.1051 41.3271 78.4545 41.8157 78.7045C42.3043 78.9545 42.8668 79.0795 43.5032 79.0795Z" fill="#1D1D1B"/>
</svg>
