<svg width="60" height="98" viewBox="0 0 60 98" fill="none" xmlns="http://www.w3.org/2000/svg">
<rect width="60" height="98" fill="#D6D6D6"/>
<path d="M45.1691 56.9217C44.7107 57.8586 44.0782 58.6928 43.3076 59.3766C42.5371 60.0604 41.6437 60.5803 40.6786 60.9067C39.7135 61.2331 38.6957 61.3594 37.6833 61.2786C36.6709 61.1977 35.6839 60.9112 34.7787 60.4354C34.0441 60.0408 33.3597 59.5537 32.7409 58.9851L32.6403 58.7388H32.4815L32.7409 58.9796L35.2128 65H24.7907L27.2043 59.0945L27.4425 58.8866H27.289L27.2043 59.0891C26.63 59.611 25.9995 60.0627 25.3253 60.4354C24.42 60.9291 23.4288 61.2318 22.4094 61.3259C21.39 61.4201 20.3627 61.3037 19.3872 60.9837C18.4116 60.6636 17.5073 60.1463 16.7269 59.4617C15.9464 58.7771 15.3053 57.9389 14.8409 56.9959C14.3765 56.0529 14.098 55.0238 14.0216 53.9685C13.9451 52.9132 14.0724 51.8527 14.3958 50.8487C14.7193 49.8446 15.2325 48.9171 15.9057 48.12C16.5789 47.3229 17.3986 46.6721 18.3172 46.2054C19.8369 45.4578 21.4936 45.0548 23.1763 45.0232C22.6292 43.6787 22.3311 42.2399 22.2976 40.7816C22.3503 38.6993 23.1874 36.7205 24.6304 35.267C26.0734 33.8134 28.0083 33 30.0229 33C32.0374 33 33.9724 33.8134 35.4154 35.267C36.8584 36.7205 37.6954 38.6993 37.7482 40.7816C37.7174 42.2286 37.4285 43.6573 36.896 44.9959C38.5914 45.0303 40.2597 45.4429 41.7868 46.2054C43.607 47.1656 44.985 48.8325 45.6189 50.8411C46.2529 52.8497 46.0911 55.0362 45.1691 56.9217Z" fill="#1D1D1B"/>
<path d="M11.9651 8.54545V26H9.85142V10.7614H9.74915L5.48778 13.5909V11.4432L9.85142 8.54545H11.9651ZM21.4781 26.2386C20.194 26.2386 19.1003 25.8892 18.1969 25.1903C17.2935 24.4858 16.6031 23.4659 16.1259 22.1307C15.6486 20.7898 15.4099 19.1705 15.4099 17.2727C15.4099 15.3864 15.6486 13.7756 16.1259 12.4403C16.6088 11.0994 17.302 10.0767 18.2054 9.37216C19.1145 8.66193 20.2054 8.30682 21.4781 8.30682C22.7509 8.30682 23.8389 8.66193 24.7423 9.37216C25.6514 10.0767 26.3446 11.0994 26.8219 12.4403C27.3048 13.7756 27.5463 15.3864 27.5463 17.2727C27.5463 19.1705 27.3077 20.7898 26.8304 22.1307C26.3531 23.4659 25.6628 24.4858 24.7594 25.1903C23.856 25.8892 22.7622 26.2386 21.4781 26.2386ZM21.4781 24.3636C22.7509 24.3636 23.7395 23.75 24.444 22.5227C25.1486 21.2955 25.5009 19.5455 25.5009 17.2727C25.5009 15.7614 25.3389 14.4744 25.0151 13.4119C24.6969 12.3494 24.2366 11.5398 23.6344 10.983C23.0378 10.4261 22.319 10.1477 21.4781 10.1477C20.2168 10.1477 19.231 10.7699 18.5207 12.0142C17.8105 13.2528 17.4554 15.0057 17.4554 17.2727C17.4554 18.7841 17.6145 20.0682 17.9327 21.125C18.2509 22.1818 18.7082 22.9858 19.3048 23.5369C19.9071 24.0881 20.6315 24.3636 21.4781 24.3636Z" fill="#1D1D1B"/>
<path d="M38.9651 71.5455V89H36.8514V73.7614H36.7491L32.4878 76.5909V74.4432L36.8514 71.5455H38.9651ZM48.4781 89.2386C47.194 89.2386 46.1003 88.8892 45.1969 88.1903C44.2935 87.4858 43.6031 86.4659 43.1259 85.1307C42.6486 83.7898 42.4099 82.1705 42.4099 80.2727C42.4099 78.3864 42.6486 76.7756 43.1259 75.4403C43.6088 74.0994 44.302 73.0767 45.2054 72.3722C46.1145 71.6619 47.2054 71.3068 48.4781 71.3068C49.7509 71.3068 50.8389 71.6619 51.7423 72.3722C52.6514 73.0767 53.3446 74.0994 53.8219 75.4403C54.3048 76.7756 54.5463 78.3864 54.5463 80.2727C54.5463 82.1705 54.3077 83.7898 53.8304 85.1307C53.3531 86.4659 52.6628 87.4858 51.7594 88.1903C50.856 88.8892 49.7622 89.2386 48.4781 89.2386ZM48.4781 87.3636C49.7509 87.3636 50.7395 86.75 51.444 85.5227C52.1486 84.2955 52.5009 82.5455 52.5009 80.2727C52.5009 78.7614 52.3389 77.4744 52.0151 76.4119C51.6969 75.3494 51.2366 74.5398 50.6344 73.983C50.0378 73.4261 49.319 73.1477 48.4781 73.1477C47.2168 73.1477 46.231 73.7699 45.5207 75.0142C44.8105 76.2528 44.4554 78.0057 44.4554 80.2727C44.4554 81.7841 44.6145 83.0682 44.9327 84.125C45.2509 85.1818 45.7082 85.9858 46.3048 86.5369C46.9071 87.0881 47.6315 87.3636 48.4781 87.3636Z" fill="#1D1D1B"/>
</svg>
