<svg width="60" height="98" viewBox="0 0 60 98" fill="none" xmlns="http://www.w3.org/2000/svg">
<rect width="60" height="98" fill="#D6D6D6"/>
<path d="M45.1691 56.9217C44.7107 57.8586 44.0782 58.6928 43.3076 59.3766C42.5371 60.0604 41.6437 60.5803 40.6786 60.9067C39.7135 61.2331 38.6957 61.3594 37.6833 61.2786C36.6709 61.1977 35.6839 60.9112 34.7787 60.4354C34.0441 60.0408 33.3597 59.5537 32.7409 58.9851L32.6403 58.7388H32.4815L32.7409 58.9796L35.2128 65H24.7907L27.2043 59.0945L27.4425 58.8866H27.289L27.2043 59.0891C26.63 59.611 25.9995 60.0627 25.3253 60.4354C24.42 60.9291 23.4288 61.2318 22.4094 61.3259C21.39 61.4201 20.3627 61.3037 19.3872 60.9837C18.4116 60.6636 17.5073 60.1463 16.7269 59.4617C15.9464 58.7771 15.3053 57.9389 14.8409 56.9959C14.3765 56.0529 14.098 55.0238 14.0216 53.9685C13.9451 52.9132 14.0724 51.8527 14.3958 50.8487C14.7193 49.8446 15.2325 48.9171 15.9057 48.12C16.5789 47.3229 17.3986 46.6721 18.3172 46.2054C19.8369 45.4578 21.4936 45.0548 23.1763 45.0232C22.6292 43.6787 22.3311 42.2399 22.2976 40.7816C22.3503 38.6993 23.1874 36.7205 24.6304 35.267C26.0734 33.8134 28.0083 33 30.0229 33C32.0374 33 33.9724 33.8134 35.4154 35.267C36.8584 36.7205 37.6954 38.6993 37.7482 40.7816C37.7174 42.2286 37.4285 43.6573 36.896 44.9959C38.5914 45.0303 40.2597 45.4429 41.7868 46.2054C43.607 47.1656 44.985 48.8325 45.6189 50.8411C46.2529 52.8497 46.0911 55.0362 45.1691 56.9217Z" fill="#1D1D1B"/>
<path d="M18.7798 8.54545H20.8935V21.0227C20.8935 22.1364 20.6889 23.0824 20.2798 23.8608C19.8707 24.6392 19.294 25.2301 18.5497 25.6335C17.8054 26.0369 16.9276 26.2386 15.9162 26.2386C14.9616 26.2386 14.1122 26.0653 13.3679 25.7188C12.6236 25.3665 12.0384 24.8665 11.6122 24.2188C11.1861 23.571 10.973 22.8011 10.973 21.9091H13.0526C13.0526 22.4034 13.1747 22.8352 13.419 23.2045C13.669 23.5682 14.0099 23.8523 14.4418 24.0568C14.8736 24.2614 15.3651 24.3636 15.9162 24.3636C16.5241 24.3636 17.0412 24.2358 17.4673 23.9801C17.8935 23.7244 18.2173 23.3494 18.4389 22.8551C18.6662 22.3551 18.7798 21.7443 18.7798 21.0227V8.54545Z" fill="#1D1D1B"/>
<path d="M45.7798 71.5455H47.8935V84.0227C47.8935 85.1364 47.6889 86.0824 47.2798 86.8608C46.8707 87.6392 46.294 88.2301 45.5497 88.6335C44.8054 89.0369 43.9276 89.2386 42.9162 89.2386C41.9616 89.2386 41.1122 89.0653 40.3679 88.7188C39.6236 88.3665 39.0384 87.8665 38.6122 87.2188C38.1861 86.571 37.973 85.8011 37.973 84.9091H40.0526C40.0526 85.4034 40.1747 85.8352 40.419 86.2045C40.669 86.5682 41.0099 86.8523 41.4418 87.0568C41.8736 87.2614 42.3651 87.3636 42.9162 87.3636C43.5241 87.3636 44.0412 87.2358 44.4673 86.9801C44.8935 86.7244 45.2173 86.3494 45.4389 85.8551C45.6662 85.3551 45.7798 84.7443 45.7798 84.0227V71.5455Z" fill="#1D1D1B"/>
</svg>
