<svg width="60" height="98" viewBox="0 0 60 98" fill="none" xmlns="http://www.w3.org/2000/svg">
<rect width="60" height="98" fill="#D6D6D6"/>
<path d="M45.1691 56.9217C44.7107 57.8586 44.0782 58.6928 43.3076 59.3766C42.5371 60.0604 41.6437 60.5803 40.6786 60.9067C39.7135 61.2331 38.6957 61.3594 37.6833 61.2786C36.6709 61.1977 35.6839 60.9112 34.7787 60.4354C34.0441 60.0408 33.3597 59.5537 32.7409 58.9851L32.6403 58.7388H32.4815L32.7409 58.9796L35.2128 65H24.7907L27.2043 59.0945L27.4425 58.8866H27.289L27.2043 59.0891C26.63 59.611 25.9995 60.0627 25.3253 60.4354C24.42 60.9291 23.4288 61.2318 22.4094 61.3259C21.39 61.4201 20.3627 61.3037 19.3872 60.9837C18.4116 60.6636 17.5073 60.1463 16.7269 59.4617C15.9464 58.7771 15.3053 57.9389 14.8409 56.9959C14.3765 56.0529 14.098 55.0238 14.0216 53.9685C13.9451 52.9132 14.0724 51.8527 14.3958 50.8487C14.7193 49.8446 15.2325 48.9171 15.9057 48.12C16.5789 47.3229 17.3986 46.6721 18.3172 46.2054C19.8369 45.4578 21.4936 45.0548 23.1763 45.0232C22.6292 43.6787 22.3311 42.2399 22.2976 40.7816C22.3503 38.6993 23.1874 36.7205 24.6304 35.267C26.0734 33.8134 28.0083 33 30.0229 33C32.0374 33 33.9724 33.8134 35.4154 35.267C36.8584 36.7205 37.6954 38.6993 37.7482 40.7816C37.7174 42.2286 37.4285 43.6573 36.896 44.9959C38.5914 45.0303 40.2597 45.4429 41.7868 46.2054C43.607 47.1656 44.985 48.8325 45.6189 50.8411C46.2529 52.8497 46.0911 55.0362 45.1691 56.9217Z" fill="#1D1D1B"/>
<path d="M16.614 26.2386C15.8981 26.2273 15.1822 26.0909 14.4663 25.8295C13.7504 25.5682 13.0969 25.1278 12.506 24.5085C11.9151 23.8835 11.4407 23.0398 11.0827 21.9773C10.7248 20.9091 10.5458 19.5682 10.5458 17.9545C10.5458 16.4091 10.6907 15.0398 10.9805 13.8466C11.2702 12.6477 11.6907 11.6392 12.2418 10.821C12.793 9.99716 13.4577 9.37216 14.2362 8.94602C15.0202 8.51989 15.9038 8.30682 16.8867 8.30682C17.864 8.30682 18.7333 8.50284 19.4947 8.89489C20.2617 9.28125 20.8867 9.82102 21.3697 10.5142C21.8526 11.2074 22.1651 12.0057 22.3072 12.9091H20.2276C20.0344 12.125 19.6594 11.4744 19.1026 10.9574C18.5458 10.4403 17.8072 10.1818 16.8867 10.1818C15.5344 10.1818 14.4691 10.7699 13.6907 11.946C12.918 13.1222 12.5288 14.7727 12.5231 16.8977H12.6594C12.9776 16.4148 13.3555 16.0028 13.793 15.6619C14.2362 15.3153 14.7248 15.0483 15.2589 14.8608C15.793 14.6733 16.3583 14.5795 16.9549 14.5795C17.9549 14.5795 18.8697 14.8295 19.6992 15.3295C20.5288 15.8239 21.1935 16.5085 21.6935 17.3835C22.1935 18.2528 22.4435 19.25 22.4435 20.375C22.4435 21.4545 22.2021 22.4432 21.7191 23.3409C21.2362 24.233 20.5572 24.9432 19.6822 25.4716C18.8129 25.9943 17.7901 26.25 16.614 26.2386ZM16.614 24.3636C17.3299 24.3636 17.9719 24.1847 18.5401 23.8267C19.114 23.4687 19.5657 22.9886 19.8952 22.3864C20.2305 21.7841 20.3981 21.1136 20.3981 20.375C20.3981 19.6534 20.2362 18.9972 19.9123 18.4062C19.5941 17.8097 19.1538 17.3352 18.5913 16.983C18.0344 16.6307 17.3981 16.4545 16.6822 16.4545C16.1424 16.4545 15.6396 16.5625 15.1737 16.7784C14.7077 16.9886 14.2987 17.2784 13.9464 17.6477C13.5998 18.017 13.3271 18.4403 13.1282 18.9176C12.9293 19.3892 12.8299 19.8864 12.8299 20.4091C12.8299 21.1023 12.9918 21.75 13.3157 22.3523C13.6452 22.9545 14.0941 23.4403 14.6623 23.8097C15.2362 24.179 15.8867 24.3636 16.614 24.3636Z" fill="#1D1D1B"/>
<path d="M43.614 89.2386C42.8981 89.2273 42.1822 89.0909 41.4663 88.8295C40.7504 88.5682 40.0969 88.1278 39.506 87.5085C38.9151 86.8835 38.4407 86.0398 38.0827 84.9773C37.7248 83.9091 37.5458 82.5682 37.5458 80.9545C37.5458 79.4091 37.6907 78.0398 37.9805 76.8466C38.2702 75.6477 38.6907 74.6392 39.2418 73.821C39.793 72.9972 40.4577 72.3722 41.2362 71.946C42.0202 71.5199 42.9038 71.3068 43.8867 71.3068C44.864 71.3068 45.7333 71.5028 46.4947 71.8949C47.2617 72.2812 47.8867 72.821 48.3697 73.5142C48.8526 74.2074 49.1651 75.0057 49.3072 75.9091H47.2276C47.0344 75.125 46.6594 74.4744 46.1026 73.9574C45.5458 73.4403 44.8072 73.1818 43.8867 73.1818C42.5344 73.1818 41.4691 73.7699 40.6907 74.946C39.918 76.1222 39.5288 77.7727 39.5231 79.8977H39.6594C39.9776 79.4148 40.3555 79.0028 40.793 78.6619C41.2362 78.3153 41.7248 78.0483 42.2589 77.8608C42.793 77.6733 43.3583 77.5795 43.9549 77.5795C44.9549 77.5795 45.8697 77.8295 46.6992 78.3295C47.5288 78.8239 48.1935 79.5085 48.6935 80.3835C49.1935 81.2528 49.4435 82.25 49.4435 83.375C49.4435 84.4545 49.2021 85.4432 48.7191 86.3409C48.2362 87.233 47.5572 87.9432 46.6822 88.4716C45.8129 88.9943 44.7901 89.25 43.614 89.2386ZM43.614 87.3636C44.3299 87.3636 44.9719 87.1847 45.5401 86.8267C46.114 86.4687 46.5657 85.9886 46.8952 85.3864C47.2305 84.7841 47.3981 84.1136 47.3981 83.375C47.3981 82.6534 47.2362 81.9972 46.9123 81.4062C46.5941 80.8097 46.1538 80.3352 45.5913 79.983C45.0344 79.6307 44.3981 79.4545 43.6822 79.4545C43.1424 79.4545 42.6396 79.5625 42.1737 79.7784C41.7077 79.9886 41.2987 80.2784 40.9464 80.6477C40.5998 81.017 40.3271 81.4403 40.1282 81.9176C39.9293 82.3892 39.8299 82.8864 39.8299 83.4091C39.8299 84.1023 39.9918 84.75 40.3157 85.3523C40.6452 85.9545 41.0941 86.4403 41.6623 86.8097C42.2362 87.179 42.8867 87.3636 43.614 87.3636Z" fill="#1D1D1B"/>
</svg>
