<svg width="60" height="98" viewBox="0 0 60 98" fill="none" xmlns="http://www.w3.org/2000/svg">
<rect width="60" height="98" fill="#D6D6D6"/>
<path d="M45.1691 56.9217C44.7107 57.8586 44.0782 58.6928 43.3076 59.3766C42.5371 60.0604 41.6437 60.5803 40.6786 60.9067C39.7135 61.2331 38.6957 61.3594 37.6833 61.2786C36.6709 61.1977 35.6839 60.9112 34.7787 60.4354C34.0441 60.0408 33.3597 59.5537 32.7409 58.9851L32.6403 58.7388H32.4815L32.7409 58.9796L35.2128 65H24.7907L27.2043 59.0945L27.4425 58.8866H27.289L27.2043 59.0891C26.63 59.611 25.9995 60.0627 25.3253 60.4354C24.42 60.9291 23.4288 61.2318 22.4094 61.3259C21.39 61.4201 20.3627 61.3037 19.3872 60.9837C18.4116 60.6636 17.5073 60.1463 16.7269 59.4617C15.9464 58.7771 15.3053 57.9389 14.8409 56.9959C14.3765 56.0529 14.098 55.0238 14.0216 53.9685C13.9451 52.9132 14.0724 51.8527 14.3958 50.8487C14.7193 49.8446 15.2325 48.9171 15.9057 48.12C16.5789 47.3229 17.3986 46.6721 18.3172 46.2054C19.8369 45.4578 21.4936 45.0548 23.1763 45.0232C22.6292 43.6787 22.3311 42.2399 22.2976 40.7816C22.3503 38.6993 23.1874 36.7205 24.6304 35.267C26.0734 33.8134 28.0083 33 30.0229 33C32.0374 33 33.9724 33.8134 35.4154 35.267C36.8584 36.7205 37.6954 38.6993 37.7482 40.7816C37.7174 42.2286 37.4285 43.6573 36.896 44.9959C38.5914 45.0303 40.2597 45.4429 41.7868 46.2054C43.607 47.1656 44.985 48.8325 45.6189 50.8411C46.2529 52.8497 46.0911 55.0362 45.1691 56.9217Z" fill="#1D1D1B"/>
<path d="M16.3754 8.30682C17.0913 8.3125 17.8072 8.44886 18.5231 8.71591C19.239 8.98295 19.8924 9.42614 20.4833 10.0455C21.0742 10.6591 21.5487 11.4972 21.9066 12.5597C22.2646 13.6222 22.4435 14.9545 22.4435 16.5568C22.4435 18.108 22.2958 19.4858 22.0004 20.6903C21.7106 21.8892 21.2901 22.9006 20.739 23.7244C20.1935 24.5483 19.5288 25.1733 18.7447 25.5994C17.9663 26.0256 17.0856 26.2386 16.1026 26.2386C15.1254 26.2386 14.2532 26.0455 13.4862 25.6591C12.7248 25.267 12.0998 24.7244 11.6112 24.0312C11.1282 23.3324 10.8185 22.5227 10.6822 21.6023H12.7617C12.9492 22.4034 13.3214 23.0653 13.8782 23.5881C14.4407 24.1051 15.1822 24.3636 16.1026 24.3636C17.4492 24.3636 18.5117 23.7756 19.2901 22.5994C20.0742 21.4233 20.4663 19.7614 20.4663 17.6136H20.3299C20.0117 18.0909 19.6339 18.5028 19.1964 18.8494C18.7589 19.196 18.2731 19.4631 17.739 19.6506C17.2049 19.8381 16.6367 19.9318 16.0344 19.9318C15.0344 19.9318 14.1168 19.6847 13.2816 19.1903C12.4521 18.6903 11.7873 18.0057 11.2873 17.1364C10.793 16.2614 10.5458 15.2614 10.5458 14.1364C10.5458 13.0682 10.7844 12.0909 11.2617 11.2045C11.7447 10.3125 12.4208 9.60227 13.2901 9.07386C14.1651 8.54545 15.1935 8.28977 16.3754 8.30682ZM16.3754 10.1818C15.6594 10.1818 15.0146 10.3608 14.4407 10.7188C13.8725 11.071 13.4208 11.5483 13.0856 12.1506C12.756 12.7472 12.5913 13.4091 12.5913 14.1364C12.5913 14.8636 12.7504 15.5256 13.0685 16.1222C13.3924 16.7131 13.8327 17.1847 14.3896 17.5369C14.9521 17.8835 15.5913 18.0568 16.3072 18.0568C16.8469 18.0568 17.3498 17.9517 17.8157 17.7415C18.2816 17.5256 18.6879 17.233 19.0344 16.8636C19.3867 16.4886 19.6623 16.0653 19.8612 15.5938C20.06 15.1165 20.1594 14.6193 20.1594 14.1023C20.1594 13.4205 19.9947 12.7812 19.6651 12.1847C19.3413 11.5881 18.8924 11.1051 18.3185 10.7358C17.7504 10.3665 17.1026 10.1818 16.3754 10.1818Z" fill="#1D1D1B"/>
<path d="M43.3754 71.3068C44.0913 71.3125 44.8072 71.4489 45.5231 71.7159C46.239 71.983 46.8924 72.4261 47.4833 73.0455C48.0742 73.6591 48.5487 74.4972 48.9066 75.5597C49.2646 76.6222 49.4435 77.9545 49.4435 79.5568C49.4435 81.108 49.2958 82.4858 49.0004 83.6903C48.7106 84.8892 48.2901 85.9006 47.739 86.7244C47.1935 87.5483 46.5288 88.1733 45.7447 88.5994C44.9663 89.0256 44.0856 89.2386 43.1026 89.2386C42.1254 89.2386 41.2532 89.0455 40.4862 88.6591C39.7248 88.267 39.0998 87.7244 38.6112 87.0312C38.1282 86.3324 37.8185 85.5227 37.6822 84.6023H39.7617C39.9492 85.4034 40.3214 86.0653 40.8782 86.5881C41.4407 87.1051 42.1822 87.3636 43.1026 87.3636C44.4492 87.3636 45.5117 86.7756 46.2901 85.5994C47.0742 84.4233 47.4663 82.7614 47.4663 80.6136H47.3299C47.0117 81.0909 46.6339 81.5028 46.1964 81.8494C45.7589 82.196 45.2731 82.4631 44.739 82.6506C44.2049 82.8381 43.6367 82.9318 43.0344 82.9318C42.0344 82.9318 41.1168 82.6847 40.2816 82.1903C39.4521 81.6903 38.7873 81.0057 38.2873 80.1364C37.793 79.2614 37.5458 78.2614 37.5458 77.1364C37.5458 76.0682 37.7844 75.0909 38.2617 74.2045C38.7447 73.3125 39.4208 72.6023 40.2901 72.0739C41.1651 71.5455 42.1935 71.2898 43.3754 71.3068ZM43.3754 73.1818C42.6594 73.1818 42.0146 73.3608 41.4407 73.7188C40.8725 74.071 40.4208 74.5483 40.0856 75.1506C39.756 75.7472 39.5913 76.4091 39.5913 77.1364C39.5913 77.8636 39.7504 78.5256 40.0685 79.1222C40.3924 79.7131 40.8327 80.1847 41.3896 80.5369C41.9521 80.8835 42.5913 81.0568 43.3072 81.0568C43.8469 81.0568 44.3498 80.9517 44.8157 80.7415C45.2816 80.5256 45.6879 80.233 46.0344 79.8636C46.3867 79.4886 46.6623 79.0653 46.8612 78.5938C47.06 78.1165 47.1594 77.6193 47.1594 77.1023C47.1594 76.4205 46.9947 75.7812 46.6651 75.1847C46.3413 74.5881 45.8924 74.1051 45.3185 73.7358C44.7504 73.3665 44.1026 73.1818 43.3754 73.1818Z" fill="#1D1D1B"/>
</svg>
