<svg width="60" height="98" viewBox="0 0 60 98" fill="none" xmlns="http://www.w3.org/2000/svg">
<rect width="60" height="98" fill="#D6D6D6"/>
<path d="M43.607 49.1238C45.1514 47.2621 46 44.8927 46 42.4428C46 39.9929 45.1514 37.6236 43.607 35.7619C42.6675 34.6181 41.4282 33.7777 40.0376 33.3412C38.647 32.9046 37.1638 32.8905 35.7656 33.3003C33.8837 33.9388 32.2942 35.2665 31.2979 37.0322L29.9586 39.2618L28.6602 37.0954C27.326 34.8658 25.2455 33.3109 22.9095 33.042C21.707 32.9133 20.4921 33.0813 19.3651 33.5322C18.2381 33.9831 17.2312 34.704 16.4277 35.6354C13.1357 39.3251 13.2329 45.5554 16.4686 49.2977L30.0302 65L43.607 49.1238Z" fill="#BE1622"/>
<path d="M11.9651 8.54545V26H9.85142V10.7614H9.74915L5.48778 13.5909V11.4432L9.85142 8.54545H11.9651ZM21.4781 26.2386C20.194 26.2386 19.1003 25.8892 18.1969 25.1903C17.2935 24.4858 16.6031 23.4659 16.1259 22.1307C15.6486 20.7898 15.4099 19.1705 15.4099 17.2727C15.4099 15.3864 15.6486 13.7756 16.1259 12.4403C16.6088 11.0994 17.302 10.0767 18.2054 9.37216C19.1145 8.66193 20.2054 8.30682 21.4781 8.30682C22.7509 8.30682 23.8389 8.66193 24.7423 9.37216C25.6514 10.0767 26.3446 11.0994 26.8219 12.4403C27.3048 13.7756 27.5463 15.3864 27.5463 17.2727C27.5463 19.1705 27.3077 20.7898 26.8304 22.1307C26.3531 23.4659 25.6628 24.4858 24.7594 25.1903C23.856 25.8892 22.7622 26.2386 21.4781 26.2386ZM21.4781 24.3636C22.7509 24.3636 23.7395 23.75 24.444 22.5227C25.1486 21.2955 25.5009 19.5455 25.5009 17.2727C25.5009 15.7614 25.3389 14.4744 25.0151 13.4119C24.6969 12.3494 24.2366 11.5398 23.6344 10.983C23.0378 10.4261 22.319 10.1477 21.4781 10.1477C20.2168 10.1477 19.231 10.7699 18.5207 12.0142C17.8105 13.2528 17.4554 15.0057 17.4554 17.2727C17.4554 18.7841 17.6145 20.0682 17.9327 21.125C18.2509 22.1818 18.7082 22.9858 19.3048 23.5369C19.9071 24.0881 20.6315 24.3636 21.4781 24.3636Z" fill="#BE1622"/>
<path d="M38.9651 71.5455V89H36.8514V73.7614H36.7491L32.4878 76.5909V74.4432L36.8514 71.5455H38.9651ZM48.4781 89.2386C47.194 89.2386 46.1003 88.8892 45.1969 88.1903C44.2935 87.4858 43.6031 86.4659 43.1259 85.1307C42.6486 83.7898 42.4099 82.1705 42.4099 80.2727C42.4099 78.3864 42.6486 76.7756 43.1259 75.4403C43.6088 74.0994 44.302 73.0767 45.2054 72.3722C46.1145 71.6619 47.2054 71.3068 48.4781 71.3068C49.7509 71.3068 50.8389 71.6619 51.7423 72.3722C52.6514 73.0767 53.3446 74.0994 53.8219 75.4403C54.3048 76.7756 54.5463 78.3864 54.5463 80.2727C54.5463 82.1705 54.3077 83.7898 53.8304 85.1307C53.3531 86.4659 52.6628 87.4858 51.7594 88.1903C50.856 88.8892 49.7622 89.2386 48.4781 89.2386ZM48.4781 87.3636C49.7509 87.3636 50.7395 86.75 51.444 85.5227C52.1486 84.2955 52.5009 82.5455 52.5009 80.2727C52.5009 78.7614 52.3389 77.4744 52.0151 76.4119C51.6969 75.3494 51.2366 74.5398 50.6344 73.983C50.0378 73.4261 49.319 73.1477 48.4781 73.1477C47.2168 73.1477 46.231 73.7699 45.5207 75.0142C44.8105 76.2528 44.4554 78.0057 44.4554 80.2727C44.4554 81.7841 44.6145 83.0682 44.9327 84.125C45.2509 85.1818 45.7082 85.9858 46.3048 86.5369C46.9071 87.0881 47.6315 87.3636 48.4781 87.3636Z" fill="#BE1622"/>
</svg>
