<svg width="60" height="98" viewBox="0 0 60 98" fill="none" xmlns="http://www.w3.org/2000/svg">
<rect width="60" height="98" fill="#D6D6D6"/>
<path d="M43.607 49.1238C45.1514 47.2621 46 44.8927 46 42.4428C46 39.9929 45.1514 37.6236 43.607 35.7619C42.6675 34.6181 41.4282 33.7777 40.0376 33.3412C38.647 32.9046 37.1638 32.8905 35.7656 33.3003C33.8837 33.9388 32.2942 35.2665 31.2979 37.0322L29.9586 39.2618L28.6602 37.0954C27.326 34.8658 25.2455 33.3109 22.9095 33.042C21.707 32.9133 20.4921 33.0813 19.3651 33.5322C18.2381 33.9831 17.2312 34.704 16.4277 35.6354C13.1357 39.3251 13.2329 45.5554 16.4686 49.2977L30.0302 65L43.607 49.1238Z" fill="#BE1622"/>
<path d="M10.7855 26V8.54545H12.8991V17.2045H13.1037L20.9446 8.54545H23.706L16.3764 16.4205L23.706 26H21.1491L15.081 17.8864L12.8991 20.3409V26H10.7855Z" fill="#BE1622"/>
<path d="M37.7855 89V71.5455H39.8991V80.2045H40.1037L47.9446 71.5455H50.706L43.3764 79.4205L50.706 89H48.1491L42.081 80.8864L39.8991 83.3409V89H37.7855Z" fill="#BE1622"/>
</svg>
