<svg width="60" height="98" viewBox="0 0 60 98" fill="none" xmlns="http://www.w3.org/2000/svg">
<rect width="60" height="98" fill="#D6D6D6"/>
<path d="M43.607 49.1238C45.1514 47.2621 46 44.8927 46 42.4428C46 39.9929 45.1514 37.6236 43.607 35.7619C42.6675 34.6181 41.4282 33.7777 40.0376 33.3412C38.647 32.9046 37.1638 32.8905 35.7656 33.3003C33.8837 33.9388 32.2942 35.2665 31.2979 37.0322L29.9586 39.2618L28.6602 37.0954C27.326 34.8658 25.2455 33.3109 22.9095 33.042C21.707 32.9133 20.4921 33.0813 19.3651 33.5322C18.2381 33.9831 17.2312 34.704 16.4277 35.6354C13.1357 39.3251 13.2329 45.5554 16.4686 49.2977L30.0302 65L43.607 49.1238Z" fill="#BE1622"/>
<path d="M18.7798 8.54545H20.8935V21.0227C20.8935 22.1364 20.6889 23.0824 20.2798 23.8608C19.8707 24.6392 19.294 25.2301 18.5497 25.6335C17.8054 26.0369 16.9276 26.2386 15.9162 26.2386C14.9616 26.2386 14.1122 26.0653 13.3679 25.7188C12.6236 25.3665 12.0384 24.8665 11.6122 24.2188C11.1861 23.571 10.973 22.8011 10.973 21.9091H13.0526C13.0526 22.4034 13.1747 22.8352 13.419 23.2045C13.669 23.5682 14.0099 23.8523 14.4418 24.0568C14.8736 24.2614 15.3651 24.3636 15.9162 24.3636C16.5241 24.3636 17.0412 24.2358 17.4673 23.9801C17.8935 23.7244 18.2173 23.3494 18.4389 22.8551C18.6662 22.3551 18.7798 21.7443 18.7798 21.0227V8.54545Z" fill="#BE1622"/>
<path d="M45.7798 71.5455H47.8935V84.0227C47.8935 85.1364 47.6889 86.0824 47.2798 86.8608C46.8707 87.6392 46.294 88.2301 45.5497 88.6335C44.8054 89.0369 43.9276 89.2386 42.9162 89.2386C41.9616 89.2386 41.1122 89.0653 40.3679 88.7188C39.6236 88.3665 39.0384 87.8665 38.6122 87.2188C38.1861 86.571 37.973 85.8011 37.973 84.9091H40.0526C40.0526 85.4034 40.1747 85.8352 40.419 86.2045C40.669 86.5682 41.0099 86.8523 41.4418 87.0568C41.8736 87.2614 42.3651 87.3636 42.9162 87.3636C43.5241 87.3636 44.0412 87.2358 44.4673 86.9801C44.8935 86.7244 45.2173 86.3494 45.4389 85.8551C45.6662 85.3551 45.7798 84.7443 45.7798 84.0227V71.5455Z" fill="#BE1622"/>
</svg>
