<svg width="60" height="98" viewBox="0 0 60 98" fill="none" xmlns="http://www.w3.org/2000/svg">
<rect width="60" height="98" fill="#D6D6D6"/>
<path d="M43.5671 58.6666C42.7642 59.6161 41.7578 60.351 40.6312 60.8106C39.5046 61.2702 38.29 61.4412 37.0881 61.3096C35.3458 61.0667 33.7399 60.1883 32.5507 58.8278L35.034 65H24.9935L27.4053 59.005C26.5382 59.9557 25.4549 60.6583 24.2577 61.0463C22.8571 61.4678 21.3705 61.4553 19.9765 61.0103C18.5825 60.5653 17.3403 59.7068 16.399 58.5377C15.308 57.1986 14.5557 55.5918 14.2119 53.866C13.868 52.1402 13.9437 50.3512 14.4318 48.6643C14.9784 46.8348 16.0251 45.2151 17.4414 44.0069L30.001 33L42.4839 43.835C43.9039 45.0451 44.9585 46.6633 45.519 48.4924C46.5461 51.9894 45.9431 55.9861 43.5671 58.6666Z" fill="#1D1D1B"/>
<path d="M15.8139 20.5455H18.1321L20.0753 23.1023L20.5866 23.7841L23.4844 27.6364H21.1662L19.2571 25.0795L18.7798 24.4318L15.8139 20.5455ZM24.2003 17.2727C24.2003 19.1136 23.8679 20.7045 23.2031 22.0455C22.5384 23.3864 21.6264 24.4205 20.4673 25.1477C19.3082 25.875 17.9844 26.2386 16.4957 26.2386C15.0071 26.2386 13.6832 25.875 12.5241 25.1477C11.3651 24.4205 10.4531 23.3864 9.78835 22.0455C9.12358 20.7045 8.79119 19.1136 8.79119 17.2727C8.79119 15.4318 9.12358 13.8409 9.78835 12.5C10.4531 11.1591 11.3651 10.125 12.5241 9.39773C13.6832 8.67045 15.0071 8.30682 16.4957 8.30682C17.9844 8.30682 19.3082 8.67045 20.4673 9.39773C21.6264 10.125 22.5384 11.1591 23.2031 12.5C23.8679 13.8409 24.2003 15.4318 24.2003 17.2727ZM22.1548 17.2727C22.1548 15.7614 21.902 14.4858 21.3963 13.446C20.8963 12.4062 20.2173 11.6193 19.3594 11.0852C18.5071 10.5511 17.5526 10.2841 16.4957 10.2841C15.4389 10.2841 14.4815 10.5511 13.6236 11.0852C12.7713 11.6193 12.0923 12.4062 11.5866 13.446C11.0866 14.4858 10.8366 15.7614 10.8366 17.2727C10.8366 18.7841 11.0866 20.0597 11.5866 21.0994C12.0923 22.1392 12.7713 22.9261 13.6236 23.4602C14.4815 23.9943 15.4389 24.2614 16.4957 24.2614C17.5526 24.2614 18.5071 23.9943 19.3594 23.4602C20.2173 22.9261 20.8963 22.1392 21.3963 21.0994C21.902 20.0597 22.1548 18.7841 22.1548 17.2727Z" fill="#1D1D1B"/>
<path d="M42.8139 83.5455H45.1321L47.0753 86.1023L47.5866 86.7841L50.4844 90.6364H48.1662L46.2571 88.0795L45.7798 87.4318L42.8139 83.5455ZM51.2003 80.2727C51.2003 82.1136 50.8679 83.7045 50.2031 85.0455C49.5384 86.3864 48.6264 87.4205 47.4673 88.1477C46.3082 88.875 44.9844 89.2386 43.4957 89.2386C42.0071 89.2386 40.6832 88.875 39.5241 88.1477C38.3651 87.4205 37.4531 86.3864 36.7884 85.0455C36.1236 83.7045 35.7912 82.1136 35.7912 80.2727C35.7912 78.4318 36.1236 76.8409 36.7884 75.5C37.4531 74.1591 38.3651 73.125 39.5241 72.3977C40.6832 71.6705 42.0071 71.3068 43.4957 71.3068C44.9844 71.3068 46.3082 71.6705 47.4673 72.3977C48.6264 73.125 49.5384 74.1591 50.2031 75.5C50.8679 76.8409 51.2003 78.4318 51.2003 80.2727ZM49.1548 80.2727C49.1548 78.7614 48.902 77.4858 48.3963 76.446C47.8963 75.4062 47.2173 74.6193 46.3594 74.0852C45.5071 73.5511 44.5526 73.2841 43.4957 73.2841C42.4389 73.2841 41.4815 73.5511 40.6236 74.0852C39.7713 74.6193 39.0923 75.4062 38.5866 76.446C38.0866 77.4858 37.8366 78.7614 37.8366 80.2727C37.8366 81.7841 38.0866 83.0597 38.5866 84.0994C39.0923 85.1392 39.7713 85.9261 40.6236 86.4602C41.4815 86.9943 42.4389 87.2614 43.4957 87.2614C44.5526 87.2614 45.5071 86.9943 46.3594 86.4602C47.2173 85.9261 47.8963 85.1392 48.3963 84.0994C48.902 83.0597 49.1548 81.7841 49.1548 80.2727Z" fill="#1D1D1B"/>
</svg>
