<svg width="60" height="98" viewBox="0 0 60 98" fill="none" xmlns="http://www.w3.org/2000/svg">
<rect width="60" height="98" fill="#D6D6D6"/>
<path d="M43.5671 58.6666C42.7642 59.6161 41.7578 60.351 40.6312 60.8106C39.5046 61.2702 38.29 61.4412 37.0881 61.3096C35.3458 61.0667 33.7399 60.1883 32.5507 58.8278L35.034 65H24.9935L27.4053 59.005C26.5382 59.9557 25.4549 60.6583 24.2577 61.0463C22.8571 61.4678 21.3705 61.4553 19.9765 61.0103C18.5825 60.5653 17.3403 59.7068 16.399 58.5377C15.308 57.1986 14.5557 55.5918 14.2119 53.866C13.868 52.1402 13.9437 50.3512 14.4318 48.6643C14.9784 46.8348 16.0251 45.2151 17.4414 44.0069L30.001 33L42.4839 43.835C43.9039 45.0451 44.9585 46.6633 45.519 48.4924C46.5461 51.9894 45.9431 55.9861 43.5671 58.6666Z" fill="#1D1D1B"/>
<path d="M18.7798 8.54545H20.8935V21.0227C20.8935 22.1364 20.6889 23.0824 20.2798 23.8608C19.8707 24.6392 19.294 25.2301 18.5497 25.6335C17.8054 26.0369 16.9276 26.2386 15.9162 26.2386C14.9616 26.2386 14.1122 26.0653 13.3679 25.7188C12.6236 25.3665 12.0384 24.8665 11.6122 24.2188C11.1861 23.571 10.973 22.8011 10.973 21.9091H13.0526C13.0526 22.4034 13.1747 22.8352 13.419 23.2045C13.669 23.5682 14.0099 23.8523 14.4418 24.0568C14.8736 24.2614 15.3651 24.3636 15.9162 24.3636C16.5241 24.3636 17.0412 24.2358 17.4673 23.9801C17.8935 23.7244 18.2173 23.3494 18.4389 22.8551C18.6662 22.3551 18.7798 21.7443 18.7798 21.0227V8.54545Z" fill="#1D1D1B"/>
<path d="M45.7798 71.5455H47.8935V84.0227C47.8935 85.1364 47.6889 86.0824 47.2798 86.8608C46.8707 87.6392 46.294 88.2301 45.5497 88.6335C44.8054 89.0369 43.9276 89.2386 42.9162 89.2386C41.9616 89.2386 41.1122 89.0653 40.3679 88.7188C39.6236 88.3665 39.0384 87.8665 38.6122 87.2188C38.1861 86.571 37.973 85.8011 37.973 84.9091H40.0526C40.0526 85.4034 40.1747 85.8352 40.419 86.2045C40.669 86.5682 41.0099 86.8523 41.4418 87.0568C41.8736 87.2614 42.3651 87.3636 42.9162 87.3636C43.5241 87.3636 44.0412 87.2358 44.4673 86.9801C44.8935 86.7244 45.2173 86.3494 45.4389 85.8551C45.6662 85.3551 45.7798 84.7443 45.7798 84.0227V71.5455Z" fill="#1D1D1B"/>
</svg>
