<svg width="60" height="98" viewBox="0 0 60 98" fill="none" xmlns="http://www.w3.org/2000/svg">
<rect width="60" height="98" fill="#D6D6D6"/>
<path d="M43.5671 58.6666C42.7642 59.6161 41.7578 60.351 40.6312 60.8106C39.5046 61.2702 38.29 61.4412 37.0881 61.3096C35.3458 61.0667 33.7399 60.1883 32.5507 58.8278L35.034 65H24.9935L27.4053 59.005C26.5382 59.9557 25.4549 60.6583 24.2577 61.0463C22.8571 61.4678 21.3705 61.4553 19.9765 61.0103C18.5825 60.5653 17.3403 59.7068 16.399 58.5377C15.308 57.1986 14.5557 55.5918 14.2119 53.866C13.868 52.1402 13.9437 50.3512 14.4318 48.6643C14.9784 46.8348 16.0251 45.2151 17.4414 44.0069L30.001 33L42.4839 43.835C43.9039 45.0451 44.9585 46.6633 45.519 48.4924C46.5461 51.9894 45.9431 55.9861 43.5671 58.6666Z" fill="#1D1D1B"/>
<path d="M11.2202 26H9.00426L15.4134 8.54545H17.5952L24.0043 26H21.7884L16.5724 11.3068H16.4361L11.2202 26ZM12.0384 19.1818H20.9702V21.0568H12.0384V19.1818Z" fill="#1D1D1B"/>
<path d="M38.2202 89H36.0043L42.4134 71.5455H44.5952L51.0043 89H48.7884L43.5724 74.3068H43.4361L38.2202 89ZM39.0384 82.1818H47.9702V84.0568H39.0384V82.1818Z" fill="#1D1D1B"/>
</svg>
